<svg width="46" height="33" viewBox="0 0 46 33" fill="none" xmlns="http://www.w3.org/2000/svg">
<path d="M39.9611 1.65039H4.74447C2.56077 1.65039 0.790527 3.44727 0.790527 5.66384V27.0068C0.790527 29.2234 2.56077 31.0203 4.74447 31.0203H39.9611C42.1448 31.0203 43.915 29.2234 43.915 27.0068V5.66384C43.915 3.44727 42.1448 1.65039 39.9611 1.65039Z" fill="white" stroke="#E6E6E6" stroke-width="2.95266"/>
<path d="M7.49309 6.46655H5.93066V18.897H7.49309V6.46655Z" fill="black"/>
<path d="M15.4008 6.46655H13.8384V18.897H15.4008V6.46655Z" fill="black"/>
<path d="M30.0307 6.46655H28.4683V18.897H30.0307V6.46655Z" fill="black"/>
<path d="M33.5893 6.46655H32.0269V18.897H33.5893V6.46655Z" fill="black"/>
<path d="M12.3236 6.46655H9.48926V18.897H12.3236V6.46655Z" fill="black"/>
<path d="M20.3792 6.46655H17.397V18.897H20.3792V6.46655Z" fill="black"/>
<path d="M38.4198 6.46655H35.5854V18.897H38.4198V6.46655Z" fill="black"/>
<path d="M26.167 6.46655H22.5371V18.897H26.167V6.46655Z" fill="black"/>
<path d="M11.8615 24.9284C12.2569 24.9284 12.2569 24.527 12.2569 24.1257C12.2569 23.323 11.4661 22.9216 10.6753 22.9216H9.09375V27.7378H11.0707C12.2569 27.7378 13.0477 26.9351 13.0477 26.1324C13.0477 25.731 12.6523 25.3297 12.2569 24.9284H11.8615ZM10.6753 23.7243C11.0707 23.7243 11.4661 23.7243 11.4661 24.1257C11.4661 24.527 11.0707 24.527 10.6753 24.527H10.2799V23.323H10.6753V23.7243ZM10.6753 26.9351H9.88454V25.731H10.6753C11.0707 25.731 11.4661 25.731 11.4661 26.1324C11.4661 26.5337 11.0707 26.5337 10.6753 26.5337V26.9351Z" fill="black"/>
<path d="M15.8157 22.5203C14.2341 22.5203 13.4434 23.7243 13.4434 24.9283C13.4434 26.5337 14.6295 27.3364 15.8157 27.3364C17.3973 27.3364 18.1881 26.1324 18.1881 24.9283C18.1881 23.323 17.0019 22.5203 15.8157 22.5203ZM15.8157 26.5337C15.0249 26.5337 14.6295 25.731 14.6295 25.3297C14.6295 24.527 15.0249 24.1256 15.8157 24.1256C16.6065 24.1256 17.0019 24.9283 17.0019 25.3297C17.0019 26.1324 16.6065 26.5337 15.8157 26.5337Z" fill="black"/>
<path d="M20.5602 26.1324V22.5203H19.374V27.3364H22.1418V26.1324H20.5602Z" fill="black"/>
<path d="M24.1188 26.1324V25.3297H25.7004V24.527H24.1188V23.7243H26.0958V22.5203H22.9326V27.3364H26.0958V26.1324H24.1188Z" fill="black"/>
<path d="M30.4453 22.5203H26.8867V23.7243H28.0729V27.3364H29.2591V23.7243H30.4453V22.5203Z" fill="black"/>
<path d="M33.2127 22.5203C31.6311 22.5203 30.8403 23.7243 30.8403 24.9283C30.8403 26.5337 32.0265 27.3364 33.2127 27.3364C34.7943 27.3364 35.5851 26.1324 35.5851 24.9283C35.5851 23.323 34.3989 22.5203 33.2127 22.5203ZM33.2127 26.5337C32.4219 26.5337 32.0265 25.731 32.0265 25.3297C32.0265 24.527 32.4219 24.1256 33.2127 24.1256C34.0035 24.1256 34.3989 24.9283 34.3989 25.3297C34.3989 26.1324 34.0035 26.5337 33.2127 26.5337Z" fill="black"/>
</svg>
