<svg width="32" height="32" viewBox="0 0 32 32" fill="none" xmlns="http://www.w3.org/2000/svg">
<path fill-rule="evenodd" clip-rule="evenodd" d="M1.23963 4.66384V26.3365C1.23963 26.7378 1.23963 27.1392 1.63503 28.3432C2.42582 29.9486 4.00739 31.1526 6.37976 31.1526H25.7541C28.1264 31.1526 29.3126 30.3499 30.4988 28.7445C30.4988 28.3432 30.8942 28.3432 30.8942 27.9419C30.8942 27.5405 30.8942 27.1392 31.2896 27.1392V5.06519C31.2896 5.06519 31.2896 4.2625 30.8942 4.2625C30.8942 3.86115 30.8942 3.86115 30.4988 3.45981C29.3126 1.05174 26.9403 1.05174 26.5449 0.650391H5.58897C5.19358 0.650391 4.00739 0.650391 2.42582 2.25577C0.844238 3.86115 1.23963 5.06519 0.844238 5.46653L1.23963 4.66384Z" fill="#1A5493"/>
<path fill-rule="evenodd" clip-rule="evenodd" d="M13.1013 18.7109L13.4967 20.3163C13.8921 20.3163 14.2875 19.9149 14.6829 19.9149C15.0783 19.9149 15.4737 19.9149 15.8691 19.9149C16.6599 19.9149 17.4507 20.3163 17.4507 21.119C17.4507 21.119 16.2645 21.119 15.4737 21.119C13.8921 21.5203 12.3105 22.323 12.3105 24.3297C12.3105 26.3365 15.0783 27.1391 16.6599 25.9351C17.0553 25.5338 17.0553 25.5338 17.0553 25.5338L17.4507 26.3365H19.4277C19.4277 25.1324 19.4277 23.9284 19.4277 22.323C19.4277 21.119 19.4277 19.9149 18.6369 19.1122C18.2415 18.7109 18.2415 18.7109 17.4507 18.3096C16.6599 17.9082 15.0783 17.9082 14.2875 18.3096C13.4967 18.3096 13.4967 18.7109 13.1013 18.7109Z" fill="#FEF113"/>
<path fill-rule="evenodd" clip-rule="evenodd" d="M26.5448 24.7311C26.5448 24.7311 26.5448 25.5338 26.9402 25.5338H28.9172V17.9082H26.5448C26.5448 19.1122 26.5448 20.3163 26.5448 21.5203C26.5448 22.323 26.5448 22.7243 26.1494 23.1257C25.754 23.527 25.3586 23.9284 24.9632 23.9284C23.777 23.9284 23.3816 22.7243 23.3816 21.5203C23.3816 21.119 23.3816 18.3095 23.3816 17.9082H21.0093C21.0093 18.3095 21.0093 21.119 21.0093 21.5203C21.0093 22.7243 21.0093 23.527 21.4047 24.7311C21.8001 25.5338 22.5909 25.9351 23.777 25.9351C24.9632 25.9351 25.754 25.1324 26.1494 24.7311H26.5448Z" fill="#FEF113"/>
<path fill-rule="evenodd" clip-rule="evenodd" d="M7.96158 17.9081H6.77539V19.5134H7.96158C7.96158 21.1188 7.56618 23.1256 8.35697 24.3296C8.75237 24.7309 9.14776 25.1323 9.54316 25.5336C10.3339 25.935 11.1247 25.5336 11.5201 25.5336V23.9282C10.3339 24.3296 9.93855 23.5269 9.93855 22.3229C9.93855 21.9215 9.93855 19.9148 9.93855 19.5134H11.5201V17.9081H9.93855V15.5H7.56618V17.9081H7.96158Z" fill="#FEF113"/>
<path fill-rule="evenodd" clip-rule="evenodd" d="M3.61182 25.5336V25.935H5.98418V15.5H3.61182V25.5336Z" fill="#FEF113"/>
<path fill-rule="evenodd" clip-rule="evenodd" d="M17.4509 21.9216C16.6602 21.9216 15.8694 21.9216 15.474 22.323C15.0786 22.323 15.0786 22.7243 15.0786 23.1257C14.6832 24.731 17.4509 24.731 17.8463 23.1257C17.8463 22.7243 17.8463 22.323 17.8463 21.9216H17.4509Z" fill="#1A5493"/>
<path fill-rule="evenodd" clip-rule="evenodd" d="M24.1727 17.507H25.7543C25.7543 17.507 25.7543 17.507 26.1497 17.507C26.5451 17.1056 26.9405 16.303 27.3359 16.303C27.7313 16.303 27.7313 15.9016 27.7313 15.9016H25.3589L24.9635 16.303C24.9635 16.7043 24.1727 17.507 23.7773 17.9083L24.1727 17.507Z" fill="#FEF113"/>
</svg>
